<svg width="1440" height="1024" viewBox="0 0 1440 1024" fill="none" xmlns="http://www.w3.org/2000/svg">
<path d="M4262.31 1042.6C4196.36 341.438 3235.98 -145.585 2498.9 -170.281C1649.49 -198.653 1301.84 393.895 664.214 179.769C82.3322 -15.4311 74.5909 -609.006 -354.578 -722.065C-748.996 -825.95 -1395.62 -496.78 -2515.13 1227.5" stroke="#2D3748" stroke-opacity="0.24" stroke-width="2" stroke-miterlimit="10"/>
<path d="M-2469.21 1308.27C-1363.48 -390.978 -715.868 -733.957 -315.077 -645.685C-18.0506 -579.854 84.2284 -287.132 308.242 -51.7476C419.89 69.2515 559.834 160.622 715.506 214.161C1225.4 389.935 1548.83 67.1096 2107.71 -52.2169C2250.19 -83.0581 2395.79 -97.0409 2541.53 -93.8773C3282.12 -80.2253 4234.25 347.39 4316.5 1023.88" stroke="#2D3748" stroke-opacity="0.24" stroke-width="2" stroke-miterlimit="10"/>
<path d="M-2423.13 1388.79C-1331.2 -285.299 -682.965 -641.983 -276.65 -569.241C22.0213 -515.744 131.776 -236.417 356.79 -12.4328C471.428 104.533 611.253 193.774 765.605 248.485C1267.93 426.443 1589.71 137.037 2150.21 24.5311C2292.66 -4.35726 2437.72 -18.4137 2583.07 -17.4135C3327.19 -12.5157 4271.06 353.278 4369.61 1005.09" stroke="#2D3748" stroke-opacity="0.24" stroke-width="2" stroke-miterlimit="10"/>
<path d="M-2377.14 1469.1C-1299.26 -179.515 -650.037 -549.773 -237.697 -492.899C62.852 -451.485 179.613 -185.809 405.986 26.9146C523.359 139.772 662.956 226.928 815.874 282.825C1311.12 462.992 1630.18 206.83 2192.89 101.29C2335.4 74.0407 2480.09 59.7909 2625.18 58.7163C3372.78 53.5317 4308.33 358.833 4423.18 985.972" stroke="#2D3748" stroke-opacity="0.24" stroke-width="2" stroke-miterlimit="10"/>
<path d="M-2331.23 1549.98C-1267.12 -73.826 -617.407 -457.433 -198.682 -416.412C103.378 -386.976 227.747 -134.931 455.373 66.1634C575.568 174.97 715.191 260.138 866.929 317.209C1355.09 499.583 1671.78 276.806 2236.95 178.126C2379.22 152.836 2523.23 138.539 2667.69 135.361C3418.88 120.1 4346.1 365.023 4477.38 967.488" stroke="#2D3748" stroke-opacity="0.24" stroke-width="2" stroke-miterlimit="10"/>
<path d="M-2285.76 1630.6C-1235.09 31.8439 -583.879 -376.754 -159.66 -340.061C143.163 -314.205 275.915 -84.9081 504.508 105.508C627.47 210.077 767.114 293.252 917.614 351.564C1398.68 536.144 1712.77 346.741 2279.55 255.001C2421.7 231.357 2565.22 216.896 2709.22 211.706C3464.02 185.887 4382.89 370.793 4530.46 948.702" stroke="#2D3748" stroke-opacity="0.24" stroke-width="2" stroke-miterlimit="10"/>
<path d="M-2239.2 1711.28C-1202.92 137.641 -552.145 -271.943 -120.698 -264.316C183.953 -257.411 324.329 -34.152 553.798 144.979C679.387 245.269 819.067 326.496 968.337 386.042C1442.32 572.829 1754.17 416.696 2322.68 331.902C2464.71 310.05 2607.76 295.502 2751.28 288.316C3509.68 252.421 4420.24 376.469 4584.1 930.063" stroke="#2D3748" stroke-opacity="0.24" stroke-width="2" stroke-miterlimit="10"/>
<path d="M-2193.25 1791.91C-1171.12 243.301 -519.606 -179.859 -81.6918 -187.238C224.252 -192.804 373.016 15.5364 603.084 184.213C731.198 280.128 870.979 359.372 1019.07 420.038C1485.84 609.147 1795.44 486.524 2365.82 408.322C2498.53 390.278 2640.09 373.602 2793.36 364.327C3555.48 318 4457.56 382.508 4637.73 911.18" stroke="#2D3748" stroke-opacity="0.24" stroke-width="2" stroke-miterlimit="10"/>
<path d="M-2147.33 1872.54C-1138.75 349.104 -487.158 -86.4581 -42.7947 -111.132C264.511 -128.081 421.784 65.3453 652.58 223.331C783.227 314.824 923.182 392.24 1070.11 454.287C1529.8 645.6 1836.92 556.117 2409.26 485.113C2542.5 468.54 2683.69 452.088 2835.85 440.714C3600.61 384.027 4494.84 388.42 4691.31 892.291" stroke="#2D3748" stroke-opacity="0.24" stroke-width="2" stroke-miterlimit="10"/>
<path d="M-2101.25 1953.08C-1106.59 454.784 -454.669 6.70759 -3.77719 -34.4148C304.763 -62.632 471.168 115.428 701.483 262.791C834.486 349.803 974.595 425.43 1120.32 488.866C1573.04 682.392 1877.79 626.293 2452.01 561.639C2585.18 546.509 2726.49 530.062 2877.54 516.71C3646.77 449.142 4532.16 393.618 4744.92 872.933" stroke="#2D3748" stroke-opacity="0.24" stroke-width="2" stroke-miterlimit="10"/>
<path d="M-2055.32 2033.74C-1074.56 560.461 -422.197 100.112 34.8952 41.923C344.668 2.55729 519.735 164.991 750.511 302.256C885.855 384.611 1026.22 458.409 1170.78 523.218C1616.3 718.947 1918.69 696.112 2494.85 639.016C2628.56 625.595 2769.51 609.012 2919.32 593.796C3692.18 515.309 4569.09 400.123 4798.4 854.776" stroke="#2D3748" stroke-opacity="0.24" stroke-width="2" stroke-miterlimit="10"/>
<path d="M-2009.36 2114.38C-1042.4 666.259 -389.466 193.527 74.1853 118.289C385.304 67.9012 569.164 214.471 799.921 341.615C932.573 414.649 1068.44 488.431 1221.75 557.588C1660.18 755.403 1960.2 766.073 2538.22 715.808C2672.22 703.967 2812.94 687.253 2961.86 670.189C3738.35 580.784 4606.9 405.943 4852.39 836.033" stroke="#2D3748" stroke-opacity="0.24" stroke-width="2" stroke-miterlimit="10"/>
<path d="M-1963.41 2195.03C-1010.25 772.419 -357.589 287.145 113.109 194.759C425.58 133.228 618.606 263.711 849.211 380.969C985.29 450.183 1121.61 522.059 1272.47 591.947C1703.8 792.33 2001.36 835.898 2581.36 792.59C2715.63 782.449 2856.24 765.609 3003.69 746.551C3783.7 645.981 4644.01 411.731 4905.79 817.264" stroke="#2D3748" stroke-opacity="0.24" stroke-width="2" stroke-miterlimit="10"/>
<path d="M-1917.71 2275.66C-978.214 877.731 -324.432 380.942 151.99 271.228C465.793 198.915 668.004 312.83 898.445 420.442C1038.08 485.602 1174.72 555.685 1322.65 626.404C1747.03 828.638 2041.97 905.94 2624.41 869.611C2759.1 860.934 2899.35 843.957 3045.67 823.161C3829.33 711.192 4681.25 417.527 4959.33 798.502" stroke="#2D3748" stroke-opacity="0.24" stroke-width="2" stroke-miterlimit="10"/>
<path d="M-1871.39 2356.2C-946.038 983.408 -292.082 474.943 191.049 347.584C506.315 264.375 717.598 361.595 947.632 459.671C1090.83 520.656 1228.02 589.198 1373.88 660.665C1790.93 865.095 2083.75 975.672 2667.56 946.272C2808.39 937.719 2948.68 921.96 3087.9 899.058C3874.94 776.281 4718.96 423.584 5013 779.625" stroke="#2D3748" stroke-opacity="0.24" stroke-width="2" stroke-miterlimit="10"/>
<path d="M-1825.44 2436.85C-913.884 1089.2 -258.772 568.619 229.607 423.909C546.327 329.923 766.814 410.215 997.03 499.023C1143.8 555.713 1281.3 622.704 1424.59 695.018C1834.67 901.661 2125.01 1045.62 2710.44 1023.04C2851.06 1016.3 2991.1 1000.51 3129.69 975.774C3920.55 840.641 4755.93 429.357 5066.75 760.384" stroke="#2D3748" stroke-opacity="0.24" stroke-width="2" stroke-miterlimit="10"/>
<path d="M-1779.51 2517.49C-881.861 1194.88 -225.516 663.151 268.991 500.288C586.916 395.756 816.748 458.643 1046.18 538.258C1196.52 590.533 1334.32 656.332 1475.16 729.378C1878.04 938.222 2166.14 1115.45 2753.78 1099.84C2894.2 1094.75 3034.01 1078.82 3171.97 1052.16C3965.99 905.849 4793.23 435.284 5120.34 742.113" stroke="#2D3748" stroke-opacity="0.24" stroke-width="2" stroke-miterlimit="10"/>
<path d="M-1733.44 2598.15C-849.726 1301.16 -193.187 757.268 307.907 576.754C627.648 461.46 866.351 506.802 1095.34 577.603C1249.75 625.244 1387.48 689.836 1525.88 763.734C1921.68 974.546 2207.28 1185.39 2796.89 1176.74C2937.1 1173.24 3076.7 1157.15 3214.02 1128.65C4011.47 970.568 4830.56 441.076 5173.96 723.35" stroke="#2D3748" stroke-opacity="0.24" stroke-width="2" stroke-miterlimit="10"/>
<path d="M-1687.49 2678.79C-818.155 1406.33 -160.167 851.662 346.903 653.591C668.205 527.768 915.787 555.322 1144.56 617.679C1302.17 661.009 1440.81 724.196 1576.52 798.814C1965.23 1012.07 2248.47 1256.06 2839.95 1254C2979.92 1252.08 3119.34 1235.83 3256 1205.5C4056.88 1035.53 4868.38 447.745 5227.5 705.073" stroke="#2D3748" stroke-opacity="0.24" stroke-width="2" stroke-miterlimit="10"/>
<path d="M-1641.54 2759.46C-785.512 1512.16 -126.999 946.072 385.852 729.588C708.966 593.124 965.321 602.645 1193.89 656.319C1355.12 694.272 1493.9 757.105 1627.28 832.702C2008.78 1048.16 2289.66 1325.42 2883.1 1330.55C3022.85 1330.28 3162.11 1313.87 3298.1 1281.65C4102.31 1099.41 4905.17 452.799 5281.18 685.84" stroke="#2D3748" stroke-opacity="0.24" stroke-width="2" stroke-miterlimit="10"/>
<path d="M-1595.48 2839.96C-753.356 1617.82 -93.8726 1041.06 424.408 805.909C749.203 659.041 1014.22 650.284 1242.57 695.634C1407.41 728.331 1546.58 790.578 1677.41 866.661C2051.94 1084.45 2330.45 1395.09 2925.75 1407.06C3065.31 1408.31 3204.45 1391.74 3339.81 1357.75C4146.79 1162.27 4942.02 458.689 5334.57 666.941" stroke="#2D3748" stroke-opacity="0.24" stroke-width="2" stroke-miterlimit="10"/>
<path d="M-1549.65 2920.6C-205.535 977.775 697.401 638.005 1292.31 735.009C1941.75 840.885 2163.28 1458.31 2969.33 1483.98C3914.91 1513.97 4910.52 433.397 5388.41 648.192" stroke="#2D3748" stroke-opacity="0.24" stroke-width="2" stroke-miterlimit="10"/>
</svg>
