<svg width="113" height="48" viewBox="0 0 113 48" fill="none" xmlns="http://www.w3.org/2000/svg">
<path d="M17.4835 47.9998H25.1272V15.0093H42.6107V9.01678H0V15.0093H17.4835V47.9998Z" fill="#2C303C" fill-opacity="0.94"/>
<path d="M33.2339 47.9963H41.2109L45.6661 39.4702H70.0952L74.5504 47.9963H82.5823L62.4476 8.98975H53.5333L33.2339 47.9963ZM47.9212 34.1326L57.8787 14.547H57.9885L67.8911 34.1326H47.9212Z" fill="#2C303C" fill-opacity="0.94"/>
<path d="M69.951 8.7041V15.5337H84.6372V33.9551C84.6372 42.8487 89.7335 47.8106 98.4212 47.8597C107.293 47.8597 112.449 42.8978 112.449 34.0042V8.7041H69.951ZM90.3919 15.5337H106.634V32.2872C106.634 37.8868 103.637 41.0301 98.4811 41.0301C93.389 41.0301 90.3919 37.8868 90.3919 32.2872V15.5337Z" fill="#2C303C" fill-opacity="0.94"/>
<path d="M83.5714 3.68652C83.5714 2.67077 83.9095 1.80404 84.5857 1.08243C85.2619 0.360809 86.0741 0 87.0259 0C87.9667 0 88.7752 0.360809 89.4514 1.08243C90.1349 1.80404 90.4804 2.67077 90.4804 3.68652C90.4804 4.69051 90.1349 5.55332 89.4514 6.27493C88.7752 7.0044 87.9667 7.37305 87.0259 7.37305C86.0741 7.37305 85.2619 7.0044 84.5857 6.27493C83.9095 5.55332 83.5714 4.69051 83.5714 3.68652ZM105.21 3.68652C105.21 2.67077 105.548 1.80404 106.224 1.08243C106.9 0.360809 107.712 0 108.664 0C109.605 0 110.413 0.360809 111.09 1.08243C111.773 1.80404 112.119 2.67077 112.119 3.68652C112.119 4.69051 111.773 5.55332 111.09 6.27493C110.413 7.0044 109.605 7.37305 108.664 7.37305C107.712 7.37305 106.9 7.0044 106.224 6.27493C105.548 5.55332 105.21 4.69051 105.21 3.68652Z" fill="#2C303C" fill-opacity="0.94"/>
</svg>
